<?xml version="1.0" encoding="utf-8"?>
<!-- Generator: Adobe Illustrator 25.3.1, SVG Export Plug-In . SVG Version: 6.00 Build 0)  -->
<svg version="1.1" id="Layer_1" xmlns="http://www.w3.org/2000/svg" xmlns:xlink="http://www.w3.org/1999/xlink" x="0px" y="0px"
	 viewBox="0 0 330 60" style="enable-background:new 0 0 330 60;" xml:space="preserve">
<style type="text/css">
	.st0{fill:#4E2817;}
	.st1{fill:#A2CD3A;}
	.st2{fill:url(#SVGID_1_);}
	.st3{fill:url(#SVGID_2_);}
	.st4{fill:url(#SVGID_3_);}
	.st5{fill:url(#SVGID_4_);}
	.st6{fill:url(#SVGID_5_);}
	.st7{fill:url(#SVGID_6_);}
	.st8{fill:url(#SVGID_7_);}
	.st9{fill:url(#SVGID_8_);}
	.st10{fill:url(#SVGID_9_);}
	.st11{fill:url(#SVGID_10_);}
	.st12{fill:url(#SVGID_11_);}
	.st13{fill:url(#SVGID_12_);}
	.st14{fill:url(#SVGID_13_);}
	.st15{fill:url(#SVGID_14_);}
	.st16{fill:url(#SVGID_15_);}
	.st17{fill:url(#SVGID_16_);}
	.st18{fill:url(#SVGID_17_);}
	.st19{fill:url(#SVGID_18_);}
	.st20{fill:url(#SVGID_19_);}
	.st21{fill:url(#SVGID_20_);}
	.st22{fill:url(#SVGID_21_);}
	.st23{fill:url(#SVGID_22_);}
	.st24{fill:url(#SVGID_23_);}
	.st25{fill:url(#SVGID_24_);}
	.st26{fill:url(#SVGID_25_);}
</style>
<g>
	<g>
		<g>
			<path class="st0" d="M90,31.5v-0.4h0.5c0.4,0,0.8-0.1,1-0.2c0.2-0.1,0.4-0.3,0.5-0.6c0.1-0.2,0.1-0.6,0.1-1.4v-9.8
				c0-0.8,0-1.2-0.1-1.4c-0.1-0.2-0.2-0.4-0.5-0.5c-0.2-0.1-0.6-0.2-1-0.2H90v-0.4h6.6c1.8,0,3.2,0.2,4.3,0.7c1.3,0.6,2.3,1.5,3,2.7
				c0.7,1.2,1,2.6,1,4.1c0,1-0.2,2-0.5,2.9c-0.3,0.9-0.8,1.6-1.3,2.2c-0.5,0.6-1.1,1-1.8,1.4c-0.7,0.3-1.5,0.6-2.6,0.8
				c-0.4,0.1-1.1,0.1-2.1,0.1H90z M95.7,17.5V29c0,0.6,0,1,0.1,1.1c0.1,0.1,0.2,0.2,0.3,0.3c0.2,0.1,0.5,0.2,0.9,0.2
				c1.2,0,2.1-0.4,2.8-1.2c0.9-1.1,1.3-2.9,1.3-5.2c0-1.9-0.3-3.4-0.9-4.6c-0.5-0.9-1.1-1.5-1.8-1.8C97.8,17.6,96.9,17.4,95.7,17.5z
				"/>
			<path class="st0" d="M113.5,17.5v6h0.3c0.9,0,1.6-0.3,2-0.9c0.4-0.6,0.7-1.5,0.8-2.6h0.4v7.8h-0.4c-0.1-0.8-0.3-1.5-0.6-2.1
				c-0.3-0.5-0.6-0.9-1-1.1c-0.4-0.2-0.9-0.3-1.6-0.3v4.2c0,0.8,0,1.3,0.1,1.5c0.1,0.2,0.2,0.3,0.4,0.4c0.2,0.1,0.5,0.2,0.9,0.2h0.9
				c1.4,0,2.5-0.3,3.3-1c0.8-0.6,1.4-1.6,1.8-2.9h0.4l-0.7,4.7h-12.8v-0.4h0.5c0.4,0,0.8-0.1,1-0.2c0.2-0.1,0.3-0.3,0.4-0.5
				c0.1-0.2,0.1-0.6,0.1-1.4v-9.8c0-0.7,0-1.1-0.1-1.2c-0.1-0.3-0.2-0.5-0.4-0.6c-0.3-0.2-0.7-0.3-1.1-0.3h-0.5v-0.4h12.4V21h-0.4
				c-0.2-1.1-0.5-1.8-0.9-2.3c-0.4-0.5-0.9-0.8-1.6-1c-0.4-0.1-1.2-0.2-2.3-0.2H113.5z"/>
			<path class="st0" d="M129.9,17.5v6h0.3c0.9,0,1.6-0.3,2-0.9c0.4-0.6,0.7-1.5,0.8-2.6h0.4v7.8h-0.4c-0.1-0.8-0.3-1.5-0.6-2.1
				c-0.3-0.5-0.6-0.9-1-1.1c-0.4-0.2-0.9-0.3-1.6-0.3v4.2c0,0.8,0,1.3,0.1,1.5c0.1,0.2,0.2,0.3,0.4,0.4c0.2,0.1,0.5,0.2,0.9,0.2h0.9
				c1.4,0,2.5-0.3,3.3-1c0.8-0.6,1.4-1.6,1.8-2.9h0.4l-0.7,4.7h-12.8v-0.4h0.5c0.4,0,0.8-0.1,1-0.2c0.2-0.1,0.3-0.3,0.4-0.5
				c0.1-0.2,0.1-0.6,0.1-1.4v-9.8c0-0.7,0-1.1-0.1-1.2c-0.1-0.3-0.2-0.5-0.4-0.6c-0.3-0.2-0.7-0.3-1.1-0.3h-0.5v-0.4h12.4V21h-0.4
				c-0.2-1.1-0.5-1.8-0.9-2.3c-0.4-0.5-0.9-0.8-1.6-1c-0.4-0.1-1.2-0.2-2.3-0.2H129.9z"/>
			<path class="st0" d="M146.3,24.7v4.1c0,0.8,0,1.3,0.1,1.5c0.1,0.2,0.3,0.4,0.5,0.5c0.3,0.1,0.7,0.2,1.4,0.2v0.4h-7.5v-0.4
				c0.7,0,1.2-0.1,1.4-0.2c0.2-0.1,0.4-0.3,0.5-0.5c0.1-0.2,0.1-0.7,0.1-1.5v-9.6c0-0.8,0-1.3-0.1-1.5c-0.1-0.2-0.3-0.4-0.5-0.5
				c-0.2-0.1-0.7-0.2-1.4-0.2v-0.4h6.5c2.1,0,3.7,0.4,4.6,1.1c0.9,0.8,1.4,1.7,1.4,2.8c0,1-0.3,1.8-0.9,2.5
				c-0.6,0.7-1.4,1.2-2.5,1.4C149.2,24.6,148,24.7,146.3,24.7z M146.3,17.5v6.4c0.2,0,0.4,0,0.5,0c0.9,0,1.6-0.3,2.1-0.8
				c0.5-0.5,0.7-1.3,0.7-2.5c0-1.1-0.2-1.9-0.7-2.4c-0.5-0.5-1.2-0.8-2.2-0.8H146.3z"/>
			<path class="st0" d="M169.5,16.6v4h-0.4c-0.2-0.9-0.5-1.6-0.8-2c-0.3-0.4-0.7-0.7-1.2-1c-0.3-0.1-0.8-0.2-1.5-0.2h-1.1v11.5
				c0,0.8,0,1.2,0.1,1.4c0.1,0.2,0.2,0.4,0.5,0.5c0.2,0.1,0.6,0.2,1,0.2h0.5v0.4H159v-0.4h0.5c0.4,0,0.8-0.1,1-0.2
				c0.2-0.1,0.3-0.3,0.4-0.5c0.1-0.2,0.1-0.6,0.1-1.4V17.5H160c-1,0-1.7,0.2-2.2,0.6c-0.6,0.6-1,1.4-1.2,2.5h-0.4v-4H169.5z"/>
			<path class="st0" d="M177.9,24.3v4.6c0,0.8,0,1.2,0.1,1.4c0.1,0.2,0.2,0.4,0.5,0.5c0.2,0.1,0.6,0.2,1,0.2h0.5v0.4h-7.8v-0.4h0.5
				c0.4,0,0.8-0.1,1-0.2c0.2-0.1,0.3-0.3,0.4-0.5c0.1-0.2,0.1-0.6,0.1-1.4v-9.8c0-0.8,0-1.2-0.1-1.4c-0.1-0.2-0.2-0.4-0.5-0.5
				c-0.2-0.1-0.6-0.2-1-0.2h-0.5v-0.4h7.8V17h-0.5c-0.4,0-0.8,0.1-1,0.2c-0.2,0.1-0.3,0.3-0.4,0.5c-0.1,0.2-0.1,0.6-0.1,1.4v4.2h5.2
				v-4.2c0-0.8,0-1.2-0.1-1.4c-0.1-0.2-0.2-0.4-0.5-0.5c-0.2-0.1-0.6-0.2-1-0.2h-0.5v-0.4h7.8V17h-0.5c-0.4,0-0.8,0.1-1,0.2
				c-0.2,0.1-0.3,0.3-0.4,0.5c-0.1,0.2-0.1,0.6-0.1,1.4v9.8c0,0.8,0,1.2,0.1,1.4c0.1,0.2,0.2,0.4,0.5,0.5c0.2,0.1,0.6,0.2,1,0.2h0.5
				v0.4h-7.8v-0.4h0.5c0.4,0,0.8-0.1,1-0.2c0.2-0.1,0.3-0.3,0.4-0.5c0.1-0.2,0.1-0.6,0.1-1.4v-4.6H177.9z"/>
			<path class="st0" d="M198.9,31.1v0.4h-7.8v-0.4h0.5c0.4,0,0.8-0.1,1-0.2c0.2-0.1,0.3-0.3,0.4-0.5c0.1-0.2,0.1-0.6,0.1-1.4v-9.8
				c0-0.8,0-1.2-0.1-1.4c-0.1-0.2-0.2-0.4-0.5-0.5c-0.2-0.1-0.6-0.2-1-0.2h-0.5v-0.4h7.8V17h-0.5c-0.4,0-0.8,0.1-1,0.2
				c-0.2,0.1-0.3,0.3-0.4,0.5c-0.1,0.2-0.1,0.6-0.1,1.4v9.8c0,0.8,0,1.2,0.1,1.4c0.1,0.2,0.2,0.4,0.5,0.5c0.2,0.1,0.6,0.2,1,0.2
				H198.9z"/>
			<path class="st0" d="M213.5,16.6l7.3,9.2v-6.4c0-0.9-0.1-1.5-0.4-1.8c-0.4-0.4-0.9-0.6-1.8-0.6v-0.4h4.9V17
				c-0.6,0.1-1,0.2-1.3,0.3c-0.2,0.1-0.4,0.3-0.5,0.6c-0.1,0.3-0.2,0.8-0.2,1.5v12.4h-0.4l-10-12.4v9.4c0,0.9,0.2,1.4,0.6,1.7
				c0.4,0.3,0.8,0.4,1.3,0.4h0.3v0.4h-5.3v-0.4c0.8,0,1.4-0.2,1.7-0.5c0.3-0.3,0.5-0.9,0.5-1.7V18.4l-0.3-0.4
				c-0.3-0.4-0.6-0.7-0.8-0.8c-0.2-0.1-0.6-0.2-1-0.2v-0.4H213.5z"/>
			<path class="st0" d="M233.8,31.1v0.4h-7.8v-0.4h0.5c0.4,0,0.8-0.1,1-0.2c0.2-0.1,0.3-0.3,0.4-0.5c0.1-0.2,0.1-0.6,0.1-1.4v-9.8
				c0-0.8,0-1.2-0.1-1.4c-0.1-0.2-0.2-0.4-0.5-0.5c-0.2-0.1-0.6-0.2-1-0.2h-0.5v-0.4h7.8V17h-0.5c-0.4,0-0.8,0.1-1,0.2
				c-0.2,0.1-0.3,0.3-0.4,0.5c-0.1,0.2-0.1,0.6-0.1,1.4v9.8c0,0.8,0,1.2,0.1,1.4c0.1,0.2,0.2,0.4,0.5,0.5c0.2,0.1,0.6,0.2,1,0.2
				H233.8z"/>
			<path class="st0" d="M241.8,24.7v4.2c0,0.8,0,1.3,0.1,1.5c0.1,0.2,0.3,0.4,0.5,0.5c0.2,0.1,0.7,0.2,1.4,0.2v0.4h-7.6v-0.4
				c0.7,0,1.2-0.1,1.4-0.2c0.2-0.1,0.4-0.3,0.5-0.5c0.1-0.2,0.1-0.7,0.1-1.5v-9.6c0-0.8,0-1.3-0.1-1.5c-0.1-0.2-0.3-0.4-0.5-0.5
				c-0.2-0.1-0.7-0.2-1.4-0.2v-0.4h6.9c1.8,0,3.1,0.1,3.9,0.4c0.8,0.2,1.5,0.7,2,1.4c0.5,0.7,0.8,1.5,0.8,2.3c0,1.1-0.4,2-1.2,2.7
				c-0.5,0.5-1.2,0.8-2.1,1l3.6,5c0.5,0.6,0.8,1.1,1,1.2c0.3,0.2,0.6,0.4,1,0.4v0.4h-4.7l-4.8-6.8H241.8z M241.8,17.4v6.5h0.6
				c1,0,1.8-0.1,2.3-0.3c0.5-0.2,0.9-0.5,1.2-1c0.3-0.5,0.4-1.1,0.4-1.9c0-1.1-0.3-2-0.8-2.5c-0.5-0.5-1.4-0.8-2.6-0.8H241.8z"/>
			<path class="st0" d="M264.1,26.4l4-9.8h6V17h-0.5c-0.4,0-0.8,0.1-1.1,0.2c-0.2,0.1-0.3,0.3-0.4,0.5c-0.1,0.2-0.1,0.6-0.1,1.4v9.8
				c0,0.8,0,1.2,0.1,1.4c0.1,0.2,0.2,0.4,0.5,0.5c0.2,0.1,0.6,0.2,1,0.2h0.5v0.4h-7.8v-0.4h0.5c0.4,0,0.8-0.1,1.1-0.2
				c0.2-0.1,0.3-0.3,0.4-0.5c0.1-0.2,0.1-0.6,0.1-1.4v-11l-5.7,13.5h-0.3L256.8,18v10.5c0,0.7,0,1.2,0.1,1.3
				c0.1,0.4,0.3,0.7,0.6,0.9c0.3,0.2,0.8,0.3,1.5,0.3v0.4h-5.1v-0.4h0.2c0.3,0,0.6,0,0.9-0.2c0.3-0.1,0.5-0.3,0.6-0.5
				c0.1-0.2,0.3-0.5,0.3-0.8c0-0.1,0-0.5,0-1.1v-9.4c0-0.8,0-1.2-0.1-1.4c-0.1-0.2-0.2-0.4-0.5-0.5c-0.2-0.1-0.6-0.2-1-0.2h-0.5
				v-0.4h6.1L264.1,26.4z"/>
			<path class="st0" d="M285.4,27.2h-5.2l-0.6,1.4c-0.2,0.5-0.3,0.9-0.3,1.2c0,0.4,0.2,0.7,0.5,0.9c0.2,0.1,0.7,0.2,1.5,0.3v0.4
				h-4.9v-0.4c0.5-0.1,1-0.3,1.3-0.7c0.3-0.4,0.8-1.1,1.3-2.2l5.3-11.8h0.2l5.4,12.2c0.5,1.2,0.9,1.9,1.3,2.2
				c0.2,0.2,0.6,0.4,1.1,0.4v0.4h-7.2v-0.4h0.3c0.6,0,1-0.1,1.2-0.2c0.2-0.1,0.2-0.3,0.2-0.5c0-0.1,0-0.3-0.1-0.4
				c0-0.1-0.1-0.3-0.3-0.8L285.4,27.2z M285,26.4l-2.2-5.1l-2.3,5.1H285z"/>
			<path class="st0" d="M303.1,27.2h-5.2l-0.6,1.4c-0.2,0.5-0.3,0.9-0.3,1.2c0,0.4,0.2,0.7,0.5,0.9c0.2,0.1,0.7,0.2,1.5,0.3v0.4
				h-4.9v-0.4c0.5-0.1,1-0.3,1.3-0.7c0.3-0.4,0.8-1.1,1.3-2.2l5.3-11.8h0.2l5.4,12.2c0.5,1.2,0.9,1.9,1.3,2.2
				c0.2,0.2,0.6,0.4,1.1,0.4v0.4h-7.2v-0.4h0.3c0.6,0,1-0.1,1.2-0.2c0.2-0.1,0.2-0.3,0.2-0.5c0-0.1,0-0.3-0.1-0.4
				c0-0.1-0.1-0.3-0.3-0.8L303.1,27.2z M302.7,26.4l-2.2-5.1l-2.3,5.1H302.7z"/>
			<path class="st0" d="M317,16.6l7.3,9.2v-6.4c0-0.9-0.1-1.5-0.4-1.8c-0.4-0.4-0.9-0.6-1.8-0.6v-0.4h4.9V17c-0.6,0.1-1,0.2-1.3,0.3
				c-0.2,0.1-0.4,0.3-0.5,0.6c-0.1,0.3-0.2,0.8-0.2,1.5v12.4h-0.4l-10-12.4v9.4c0,0.9,0.2,1.4,0.6,1.7c0.4,0.3,0.8,0.4,1.3,0.4h0.3
				v0.4h-5.3v-0.4c0.8,0,1.4-0.2,1.7-0.5c0.3-0.3,0.5-0.9,0.5-1.7V18.4l-0.3-0.4c-0.3-0.4-0.6-0.7-0.8-0.8c-0.2-0.1-0.6-0.2-1-0.2
				v-0.4H317z"/>
		</g>
	</g>
	<g>
		<path class="st1" d="M111.2,44.9v1.9c0,0.4,0,0.6,0.1,0.7c0,0.1,0.1,0.2,0.2,0.2c0.1,0.1,0.3,0.1,0.6,0.1V48h-3.5v-0.2
			c0.3,0,0.5,0,0.6-0.1s0.2-0.1,0.2-0.2c0-0.1,0.1-0.3,0.1-0.7v-4.5c0-0.4,0-0.6-0.1-0.7c0-0.1-0.1-0.2-0.2-0.2
			c-0.1-0.1-0.3-0.1-0.6-0.1v-0.2h3c1,0,1.7,0.2,2.1,0.5c0.4,0.4,0.6,0.8,0.6,1.3c0,0.4-0.1,0.8-0.4,1.1c-0.3,0.3-0.7,0.5-1.1,0.6
			C112.5,44.9,111.9,44.9,111.2,44.9z M111.2,41.5v3c0.1,0,0.2,0,0.3,0c0.4,0,0.7-0.1,1-0.4c0.2-0.2,0.3-0.6,0.3-1.1
			c0-0.5-0.1-0.9-0.3-1.1c-0.2-0.2-0.6-0.4-1-0.4H111.2z"/>
		<path class="st1" d="M119.5,44.9v1.9c0,0.4,0,0.6,0.1,0.7c0,0.1,0.1,0.2,0.2,0.2c0.1,0.1,0.3,0.1,0.6,0.1V48H117v-0.2
			c0.3,0,0.5,0,0.6-0.1s0.2-0.1,0.2-0.2c0-0.1,0.1-0.3,0.1-0.7v-4.5c0-0.4,0-0.6-0.1-0.7c0-0.1-0.1-0.2-0.2-0.2
			c-0.1-0.1-0.3-0.1-0.6-0.1v-0.2h3.2c0.8,0,1.4,0.1,1.8,0.2c0.4,0.1,0.7,0.3,0.9,0.6c0.2,0.3,0.4,0.7,0.4,1.1
			c0,0.5-0.2,0.9-0.5,1.3c-0.2,0.2-0.6,0.4-1,0.5l1.7,2.3c0.2,0.3,0.4,0.5,0.5,0.6c0.1,0.1,0.3,0.2,0.5,0.2V48h-2.2l-2.2-3.1H119.5z
			 M119.5,41.5v3h0.3c0.5,0,0.8,0,1.1-0.1c0.2-0.1,0.4-0.2,0.5-0.5c0.1-0.2,0.2-0.5,0.2-0.9c0-0.5-0.1-0.9-0.4-1.2
			c-0.2-0.2-0.6-0.4-1.2-0.4H119.5z"/>
		<path class="st1" d="M130.3,41c1.1,0,2,0.3,2.7,1c0.7,0.7,1,1.5,1,2.5c0,0.9-0.3,1.6-0.8,2.3c-0.7,0.9-1.6,1.3-2.9,1.3
			c-1.2,0-2.2-0.4-2.9-1.3c-0.5-0.7-0.8-1.4-0.8-2.4c0-1,0.3-1.9,1-2.5C128.5,41.3,129.3,41,130.3,41z M130.4,41.4
			c-0.6,0-1.1,0.3-1.4,1c-0.3,0.5-0.4,1.3-0.4,2.3c0,1.2,0.2,2,0.6,2.6c0.3,0.4,0.7,0.6,1.2,0.6c0.3,0,0.6-0.1,0.9-0.3
			c0.3-0.2,0.5-0.6,0.7-1c0.2-0.5,0.2-1.1,0.2-1.9c0-0.9-0.1-1.6-0.3-2c-0.2-0.5-0.4-0.8-0.6-1C131,41.5,130.7,41.4,130.4,41.4z"/>
		<path class="st1" d="M137.9,41.3v-0.2h3.7v0.2h-0.2c-0.2,0-0.4,0-0.5,0.1c-0.1,0-0.2,0.1-0.2,0.2c0,0.1-0.1,0.3-0.1,0.6v3.4
			c0,0.7-0.1,1.1-0.2,1.4c-0.1,0.3-0.4,0.5-0.7,0.7s-0.7,0.3-1.2,0.3c-0.6,0-1-0.2-1.4-0.5c-0.4-0.3-0.5-0.6-0.5-1
			c0-0.2,0.1-0.4,0.2-0.6c0.1-0.1,0.3-0.2,0.5-0.2c0.2,0,0.4,0.1,0.5,0.2c0.1,0.1,0.2,0.3,0.2,0.5c0,0.1,0,0.2,0,0.2
			c0,0-0.1,0.1-0.2,0.3c-0.1,0.1-0.1,0.2-0.1,0.3c0,0.1,0,0.2,0.1,0.2c0.1,0.1,0.3,0.1,0.5,0.1c0.1,0,0.3,0,0.4-0.1
			c0.1-0.1,0.2-0.2,0.2-0.3c0-0.2,0.1-0.6,0.1-1.3v-3.7c0-0.4,0-0.6-0.1-0.7c0-0.1-0.1-0.2-0.2-0.2c-0.1-0.1-0.3-0.1-0.5-0.1H137.9z
			"/>
		<path class="st1" d="M146.6,41.5v2.8h0.1c0.4,0,0.8-0.1,0.9-0.4c0.2-0.3,0.3-0.7,0.4-1.2h0.2v3.6H148c0-0.4-0.1-0.7-0.3-1
			c-0.1-0.2-0.3-0.4-0.5-0.5c-0.2-0.1-0.4-0.1-0.7-0.1v1.9c0,0.4,0,0.6,0,0.7s0.1,0.2,0.2,0.2c0.1,0.1,0.2,0.1,0.4,0.1h0.4
			c0.6,0,1.2-0.1,1.5-0.4c0.4-0.3,0.7-0.7,0.8-1.4h0.2l-0.3,2.2h-5.9v-0.2h0.2c0.2,0,0.4,0,0.5-0.1c0.1,0,0.2-0.1,0.2-0.2
			c0-0.1,0.1-0.3,0.1-0.6v-4.5c0-0.3,0-0.5,0-0.6c0-0.1-0.1-0.2-0.2-0.3c-0.1-0.1-0.3-0.1-0.5-0.1h-0.2v-0.2h5.7v2h-0.2
			c-0.1-0.5-0.2-0.9-0.4-1.1c-0.2-0.2-0.4-0.4-0.8-0.5c-0.2-0.1-0.5-0.1-1.1-0.1H146.6z"/>
		<path class="st1" d="M159.6,41v2.4h-0.2c-0.1-0.6-0.4-1.1-0.8-1.4c-0.4-0.3-0.9-0.5-1.4-0.5c-0.4,0-0.8,0.1-1.2,0.4
			c-0.4,0.2-0.6,0.6-0.8,1c-0.2,0.5-0.3,1.1-0.3,1.7c0,0.6,0.1,1.2,0.2,1.7c0.2,0.5,0.4,0.9,0.7,1.1c0.3,0.3,0.8,0.4,1.3,0.4
			c0.4,0,0.8-0.1,1.2-0.3c0.4-0.2,0.7-0.5,1.1-1V47c-0.4,0.4-0.8,0.7-1.2,0.9c-0.4,0.2-0.9,0.3-1.5,0.3c-0.7,0-1.4-0.1-2-0.4
			c-0.6-0.3-1-0.7-1.3-1.3c-0.3-0.5-0.5-1.1-0.5-1.8c0-0.7,0.2-1.3,0.5-1.9c0.3-0.6,0.8-1,1.4-1.4c0.6-0.3,1.2-0.5,1.9-0.5
			c0.5,0,1,0.1,1.5,0.3c0.3,0.1,0.5,0.2,0.6,0.2c0.1,0,0.2,0,0.3-0.1c0.1-0.1,0.1-0.2,0.2-0.4H159.6z"/>
		<path class="st1" d="M168.8,41.1V43h-0.2c-0.1-0.4-0.2-0.7-0.4-0.9c-0.1-0.2-0.3-0.3-0.5-0.4c-0.1-0.1-0.4-0.1-0.7-0.1h-0.5v5.3
			c0,0.4,0,0.6,0.1,0.7c0,0.1,0.1,0.2,0.2,0.2c0.1,0.1,0.3,0.1,0.5,0.1h0.2V48h-3.6v-0.2h0.2c0.2,0,0.4,0,0.5-0.1
			c0.1,0,0.2-0.1,0.2-0.2c0-0.1,0.1-0.3,0.1-0.6v-5.3h-0.5c-0.5,0-0.8,0.1-1,0.3c-0.3,0.3-0.5,0.7-0.6,1.2h-0.2v-1.9H168.8z"/>
		<path class="st1" d="M176.2,41l0.1,2.3H176c-0.1-0.6-0.3-1-0.7-1.4s-0.8-0.5-1.2-0.5c-0.3,0-0.6,0.1-0.8,0.3
			c-0.2,0.2-0.3,0.4-0.3,0.6c0,0.2,0,0.3,0.1,0.4c0.1,0.2,0.3,0.3,0.5,0.5c0.2,0.1,0.5,0.3,1.1,0.6c0.8,0.4,1.3,0.8,1.6,1.1
			c0.3,0.4,0.4,0.8,0.4,1.2c0,0.6-0.2,1.1-0.7,1.5c-0.4,0.4-1,0.6-1.7,0.6c-0.2,0-0.4,0-0.6-0.1c-0.2,0-0.4-0.1-0.7-0.2
			c-0.2-0.1-0.3-0.1-0.4-0.1c-0.1,0-0.2,0-0.3,0.1s-0.2,0.2-0.2,0.3h-0.2v-2.6h0.2c0.1,0.7,0.4,1.3,0.9,1.7c0.4,0.4,0.9,0.6,1.4,0.6
			c0.4,0,0.7-0.1,0.9-0.3c0.2-0.2,0.3-0.4,0.3-0.7c0-0.2,0-0.3-0.1-0.5c-0.1-0.2-0.2-0.3-0.4-0.4c-0.2-0.1-0.5-0.3-0.9-0.5
			c-0.6-0.3-1.1-0.6-1.3-0.8c-0.3-0.2-0.5-0.5-0.6-0.7c-0.1-0.3-0.2-0.6-0.2-0.9c0-0.5,0.2-1,0.6-1.4c0.4-0.4,0.9-0.6,1.5-0.6
			c0.2,0,0.4,0,0.6,0.1c0.2,0,0.4,0.1,0.6,0.2c0.2,0.1,0.4,0.2,0.5,0.2c0.1,0,0.2,0,0.2-0.1c0.1-0.1,0.1-0.2,0.1-0.4H176.2z"/>
		<path class="st1" d="M186.6,44.9v1.9c0,0.4,0,0.6,0.1,0.7c0,0.1,0.1,0.2,0.2,0.2c0.1,0.1,0.3,0.1,0.6,0.1V48h-3.5v-0.2
			c0.3,0,0.5,0,0.6-0.1s0.2-0.1,0.2-0.2c0-0.1,0.1-0.3,0.1-0.7v-4.5c0-0.4,0-0.6-0.1-0.7c0-0.1-0.1-0.2-0.2-0.2
			c-0.1-0.1-0.3-0.1-0.6-0.1v-0.2h3c1,0,1.7,0.2,2.1,0.5c0.4,0.4,0.6,0.8,0.6,1.3c0,0.4-0.1,0.8-0.4,1.1c-0.3,0.3-0.7,0.5-1.1,0.6
			C187.9,44.9,187.4,44.9,186.6,44.9z M186.6,41.5v3c0.1,0,0.2,0,0.3,0c0.4,0,0.7-0.1,1-0.4c0.2-0.2,0.3-0.6,0.3-1.1
			c0-0.5-0.1-0.9-0.3-1.1c-0.2-0.2-0.6-0.4-1-0.4H186.6z"/>
		<path class="st1" d="M195,44.9v1.9c0,0.4,0,0.6,0.1,0.7c0,0.1,0.1,0.2,0.2,0.2c0.1,0.1,0.3,0.1,0.6,0.1V48h-3.5v-0.2
			c0.3,0,0.5,0,0.6-0.1s0.2-0.1,0.2-0.2s0.1-0.3,0.1-0.7v-4.5c0-0.4,0-0.6-0.1-0.7c0-0.1-0.1-0.2-0.2-0.2c-0.1-0.1-0.3-0.1-0.6-0.1
			v-0.2h3.2c0.8,0,1.4,0.1,1.8,0.2c0.4,0.1,0.7,0.3,0.9,0.6c0.2,0.3,0.4,0.7,0.4,1.1c0,0.5-0.2,0.9-0.5,1.3c-0.2,0.2-0.6,0.4-1,0.5
			l1.7,2.3c0.2,0.3,0.4,0.5,0.5,0.6c0.1,0.1,0.3,0.2,0.5,0.2V48h-2.2l-2.2-3.1H195z M195,41.5v3h0.3c0.5,0,0.8,0,1.1-0.1
			c0.2-0.1,0.4-0.2,0.5-0.5c0.1-0.2,0.2-0.5,0.2-0.9c0-0.5-0.1-0.9-0.4-1.2c-0.2-0.2-0.6-0.4-1.2-0.4H195z"/>
		<path class="st1" d="M205.6,47.8V48H202v-0.2h0.2c0.2,0,0.4,0,0.5-0.1c0.1,0,0.2-0.1,0.2-0.2c0-0.1,0.1-0.3,0.1-0.6v-4.5
			c0-0.4,0-0.6-0.1-0.7c0-0.1-0.1-0.2-0.2-0.2c-0.1-0.1-0.3-0.1-0.5-0.1H202v-0.2h3.6v0.2h-0.2c-0.2,0-0.4,0-0.5,0.1
			c-0.1,0-0.2,0.1-0.2,0.2c0,0.1-0.1,0.3-0.1,0.6v4.5c0,0.4,0,0.6,0.1,0.7c0,0.1,0.1,0.2,0.2,0.2c0.1,0.1,0.3,0.1,0.5,0.1H205.6z"/>
		<path class="st1" d="M215.3,41.1v0.2c-0.2,0-0.5,0.2-0.7,0.4c-0.1,0.2-0.4,0.6-0.6,1.2l-2.4,5.2h-0.2l-2.4-5.5
			c-0.3-0.7-0.5-1-0.6-1.2c-0.1-0.1-0.3-0.2-0.5-0.2v-0.2h3.3v0.2h-0.1c-0.3,0-0.5,0-0.6,0.1c-0.1,0.1-0.1,0.1-0.1,0.2
			c0,0.1,0,0.1,0,0.2c0,0.1,0.1,0.3,0.3,0.7l1.5,3.4l1.4-3c0.2-0.4,0.3-0.6,0.3-0.7c0-0.1,0.1-0.2,0.1-0.3c0-0.1,0-0.2-0.1-0.3
			s-0.1-0.1-0.2-0.2c-0.1-0.1-0.3-0.1-0.6-0.1v-0.2H215.3z"/>
		<path class="st1" d="M220.4,46.1H218l-0.3,0.7c-0.1,0.2-0.1,0.4-0.1,0.6c0,0.2,0.1,0.3,0.2,0.4c0.1,0.1,0.3,0.1,0.7,0.1V48h-2.3
			v-0.2c0.2,0,0.4-0.1,0.6-0.3c0.2-0.2,0.4-0.5,0.6-1l2.5-5.5h0.1l2.5,5.6c0.2,0.5,0.4,0.9,0.6,1c0.1,0.1,0.3,0.2,0.5,0.2V48h-3.3
			v-0.2h0.1c0.3,0,0.5,0,0.6-0.1c0.1-0.1,0.1-0.1,0.1-0.2c0-0.1,0-0.1,0-0.2c0,0-0.1-0.2-0.2-0.4L220.4,46.1z M220.2,45.7l-1-2.4
			l-1.1,2.4H220.2z"/>
		<path class="st1" d="M231.4,41.1V43h-0.2c-0.1-0.4-0.2-0.7-0.4-0.9c-0.1-0.2-0.3-0.3-0.5-0.4c-0.1-0.1-0.4-0.1-0.7-0.1h-0.5v5.3
			c0,0.4,0,0.6,0.1,0.7c0,0.1,0.1,0.2,0.2,0.2c0.1,0.1,0.3,0.1,0.5,0.1h0.2V48h-3.6v-0.2h0.2c0.2,0,0.4,0,0.5-0.1
			c0.1,0,0.2-0.1,0.2-0.2c0-0.1,0.1-0.3,0.1-0.6v-5.3H227c-0.5,0-0.8,0.1-1,0.3c-0.3,0.3-0.5,0.7-0.6,1.2h-0.2v-1.9H231.4z"/>
		<path class="st1" d="M236.7,41.5v2.8h0.1c0.4,0,0.8-0.1,0.9-0.4c0.2-0.3,0.3-0.7,0.4-1.2h0.2v3.6h-0.2c0-0.4-0.1-0.7-0.3-1
			c-0.1-0.2-0.3-0.4-0.5-0.5c-0.2-0.1-0.4-0.1-0.7-0.1v1.9c0,0.4,0,0.6,0,0.7c0,0.1,0.1,0.2,0.2,0.2c0.1,0.1,0.2,0.1,0.4,0.1h0.4
			c0.6,0,1.2-0.1,1.5-0.4c0.4-0.3,0.7-0.7,0.8-1.4h0.2L240,48h-5.9v-0.2h0.2c0.2,0,0.4,0,0.5-0.1c0.1,0,0.2-0.1,0.2-0.2
			c0-0.1,0.1-0.3,0.1-0.6v-4.5c0-0.3,0-0.5,0-0.6c0-0.1-0.1-0.2-0.2-0.3c-0.1-0.1-0.3-0.1-0.5-0.1h-0.2v-0.2h5.7v2h-0.2
			c-0.1-0.5-0.2-0.9-0.4-1.1c-0.2-0.2-0.4-0.4-0.8-0.5c-0.2-0.1-0.5-0.1-1.1-0.1H236.7z"/>
		<path class="st1" d="M254.1,45.6l-0.3,2.4h-6.1v-0.2h0.2c0.2,0,0.4,0,0.5-0.1c0.1,0,0.2-0.1,0.2-0.2c0-0.1,0.1-0.3,0.1-0.6v-4.5
			c0-0.4,0-0.6-0.1-0.7c0-0.1-0.1-0.2-0.2-0.2c-0.1-0.1-0.3-0.1-0.5-0.1h-0.2v-0.2h3.7v0.2h-0.3c-0.2,0-0.4,0-0.5,0.1
			c-0.1,0-0.2,0.1-0.2,0.2c0,0.1-0.1,0.3-0.1,0.6v4.4c0,0.4,0,0.6,0.1,0.7c0,0.1,0.1,0.2,0.2,0.2c0.1,0,0.3,0,0.6,0h0.6
			c0.4,0,0.7-0.1,0.9-0.2c0.2-0.1,0.5-0.3,0.6-0.6c0.2-0.3,0.3-0.7,0.5-1.2H254.1z"/>
		<path class="st1" d="M260.3,47.8V48h-3.6v-0.2h0.2c0.2,0,0.4,0,0.5-0.1c0.1,0,0.2-0.1,0.2-0.2c0-0.1,0.1-0.3,0.1-0.6v-4.5
			c0-0.4,0-0.6-0.1-0.7c0-0.1-0.1-0.2-0.2-0.2c-0.1-0.1-0.3-0.1-0.5-0.1h-0.2v-0.2h3.6v0.2h-0.2c-0.2,0-0.4,0-0.5,0.1
			c-0.1,0-0.2,0.1-0.2,0.2c0,0.1-0.1,0.3-0.1,0.6v4.5c0,0.4,0,0.6,0.1,0.7c0,0.1,0.1,0.2,0.2,0.2c0.1,0.1,0.3,0.1,0.5,0.1H260.3z"/>
		<path class="st1" d="M267.6,45.7l1.9-4.5h2.8v0.2H272c-0.2,0-0.4,0-0.5,0.1c-0.1,0-0.2,0.1-0.2,0.2c0,0.1-0.1,0.3-0.1,0.6v4.5
			c0,0.4,0,0.6,0.1,0.7c0,0.1,0.1,0.2,0.2,0.2c0.1,0.1,0.3,0.1,0.5,0.1h0.2V48h-3.6v-0.2h0.2c0.2,0,0.4,0,0.5-0.1
			c0.1,0,0.2-0.1,0.2-0.2c0-0.1,0.1-0.3,0.1-0.6v-5.1L267,48h-0.1l-2.7-6.2v4.8c0,0.3,0,0.5,0,0.6c0,0.2,0.1,0.3,0.3,0.4
			c0.1,0.1,0.4,0.2,0.7,0.2V48h-2.3v-0.2h0.1c0.2,0,0.3,0,0.4-0.1c0.1-0.1,0.2-0.1,0.3-0.2s0.1-0.2,0.2-0.4c0,0,0-0.2,0-0.5v-4.3
			c0-0.3,0-0.6-0.1-0.7c0-0.1-0.1-0.2-0.2-0.2c-0.1-0.1-0.3-0.1-0.5-0.1h-0.2v-0.2h2.8L267.6,45.7z"/>
		<path class="st1" d="M278.3,47.8V48h-3.6v-0.2h0.2c0.2,0,0.4,0,0.5-0.1c0.1,0,0.2-0.1,0.2-0.2c0-0.1,0.1-0.3,0.1-0.6v-4.5
			c0-0.4,0-0.6-0.1-0.7c0-0.1-0.1-0.2-0.2-0.2c-0.1-0.1-0.3-0.1-0.5-0.1h-0.2v-0.2h3.6v0.2h-0.2c-0.2,0-0.4,0-0.5,0.1
			c-0.1,0-0.2,0.1-0.2,0.2c0,0.1-0.1,0.3-0.1,0.6v4.5c0,0.4,0,0.6,0.1,0.7c0,0.1,0.1,0.2,0.2,0.2c0.1,0.1,0.3,0.1,0.5,0.1H278.3z"/>
		<path class="st1" d="M287.2,41.1V43H287c-0.1-0.4-0.2-0.7-0.4-0.9c-0.1-0.2-0.3-0.3-0.5-0.4c-0.1-0.1-0.4-0.1-0.7-0.1h-0.5v5.3
			c0,0.4,0,0.6,0.1,0.7c0,0.1,0.1,0.2,0.2,0.2c0.1,0.1,0.3,0.1,0.5,0.1h0.2V48h-3.6v-0.2h0.2c0.2,0,0.4,0,0.5-0.1
			c0.1,0,0.2-0.1,0.2-0.2c0-0.1,0.1-0.3,0.1-0.6v-5.3h-0.5c-0.5,0-0.8,0.1-1,0.3c-0.3,0.3-0.5,0.7-0.6,1.2H281v-1.9H287.2z"/>
		<path class="st1" d="M292.4,41.5v2.8h0.1c0.4,0,0.8-0.1,0.9-0.4c0.2-0.3,0.3-0.7,0.4-1.2h0.2v3.6h-0.2c0-0.4-0.1-0.7-0.3-1
			c-0.1-0.2-0.3-0.4-0.5-0.5c-0.2-0.1-0.4-0.1-0.7-0.1v1.9c0,0.4,0,0.6,0,0.7c0,0.1,0.1,0.2,0.2,0.2c0.1,0.1,0.2,0.1,0.4,0.1h0.4
			c0.6,0,1.2-0.1,1.5-0.4c0.4-0.3,0.7-0.7,0.8-1.4h0.2l-0.3,2.2h-5.9v-0.2h0.2c0.2,0,0.4,0,0.5-0.1c0.1,0,0.2-0.1,0.2-0.2
			c0-0.1,0.1-0.3,0.1-0.6v-4.5c0-0.3,0-0.5,0-0.6c0-0.1-0.1-0.2-0.2-0.3c-0.1-0.1-0.3-0.1-0.5-0.1h-0.2v-0.2h5.7v2h-0.2
			c-0.1-0.5-0.2-0.9-0.4-1.1c-0.2-0.2-0.4-0.4-0.8-0.5c-0.2-0.1-0.5-0.1-1.1-0.1H292.4z"/>
		<path class="st1" d="M298.7,48v-0.2h0.2c0.2,0,0.4,0,0.5-0.1c0.1-0.1,0.2-0.1,0.2-0.3c0-0.1,0-0.3,0-0.6v-4.5c0-0.4,0-0.6-0.1-0.7
			c0-0.1-0.1-0.2-0.2-0.2c-0.1-0.1-0.3-0.1-0.5-0.1h-0.2v-0.2h3.1c0.8,0,1.5,0.1,2,0.3c0.6,0.3,1.1,0.7,1.4,1.2
			c0.3,0.6,0.5,1.2,0.5,1.9c0,0.5-0.1,0.9-0.2,1.3c-0.2,0.4-0.4,0.7-0.6,1s-0.5,0.5-0.9,0.6c-0.3,0.2-0.7,0.3-1.2,0.4
			c-0.2,0-0.5,0.1-1,0.1H298.7z M301.4,41.5v5.4c0,0.3,0,0.5,0,0.5c0,0.1,0.1,0.1,0.1,0.1c0.1,0,0.2,0.1,0.4,0.1
			c0.6,0,1-0.2,1.3-0.6c0.4-0.5,0.6-1.3,0.6-2.4c0-0.9-0.1-1.6-0.4-2.1c-0.2-0.4-0.5-0.7-0.8-0.8C302.3,41.6,301.9,41.5,301.4,41.5z
			"/>
	</g>
	<g>
		<g>
			<linearGradient id="SVGID_1_" gradientUnits="userSpaceOnUse" x1="53.5012" y1="1.0318" x2="53.5012" y2="52.6303">
				<stop  offset="0" style="stop-color:#A2CD3A"/>
				<stop  offset="0.5295" style="stop-color:#995624"/>
				<stop  offset="1" style="stop-color:#4E2817"/>
			</linearGradient>
			<path class="st2" d="M36.1,41.9c3.7-1.8,7.4-3.6,11.1-5.4c-0.2-0.4-0.4-0.7-0.6-1.1c0.1-0.1,0.2-0.2,0.4-0.2
				c1.6-0.9,3.2-1.8,4.7-2.7c0.2-0.1,0.5-0.1,0.7-0.1c0.3,0,0.6,0.1,0.9,0.3c1.1,0.6,2,0.1,3-0.5c-0.8-0.2-1.5-0.4-2.2-0.7
				c-1.2-0.6-2.3-0.4-3.4,0.4c-1,0.7-2,1.2-3.1,1.8c-0.3-0.6-0.6-1.1-1-1.7c0.1-0.1,0.2-0.2,0.3-0.2c1.6-0.9,3.2-1.9,4.8-2.8
				c0.2-0.1,0.5-0.2,0.7-0.1c2,0.6,4,1.2,6,1.8c0.4,0.1,0.7,0.1,1-0.1c0.4-0.2,0.8-0.4,1.3-0.6c-0.3-0.1-0.4-0.1-0.6-0.2
				c-2.5-0.8-4.9-1.5-7.4-2.3c-0.3-0.1-0.6-0.1-0.8,0.1c-1.4,0.8-2.8,1.7-4.3,2.5c-0.3-0.6-0.6-1.1-1-1.7c0.1-0.1,0.2-0.2,0.3-0.2
				c1.6-0.9,3.2-1.8,4.7-2.7c0.3-0.2,0.5-0.2,0.8-0.1c3.5,1.1,6.9,2.1,10.4,3.2c0.4,0.1,0.7,0.1,1-0.1c2.2-1.1,4.4-2.2,6.6-3.2
				c0.1,0,0.2-0.1,0.3-0.1c-0.1,0.2-0.1,0.3-0.2,0.5c-2.4,5.3-4.7,10.7-7.1,16C63.5,41.9,63.3,42,63,42c-8.8,0-17.7,0-26.5,0
				c-0.1,0-0.2,0-0.3,0C36.2,42,36.2,41.9,36.1,41.9z"/>
		</g>
		<g>
			<linearGradient id="SVGID_2_" gradientUnits="userSpaceOnUse" x1="34.1728" y1="1.0318" x2="34.1728" y2="52.6303">
				<stop  offset="0" style="stop-color:#A2CD3A"/>
				<stop  offset="0.5295" style="stop-color:#995624"/>
				<stop  offset="1" style="stop-color:#4E2817"/>
			</linearGradient>
			<path class="st3" d="M22.1,25c1.7,0.8,3.4,1.5,5,2.4c1.1,0.6,1.9,0.6,2.9-0.1c0.9-0.7,2-1.2,3-1.8c0.2-0.1,0.4-0.1,0.6-0.1
				c3.9,1.2,7.9,2.4,11.8,3.6c0,0,0.1,0,0.2,0.1c-0.2,0.6-0.4,1.2-0.6,1.8c-0.5-0.2-1-0.3-1.5-0.4c-3.2-1-6.4-2-9.6-2.9
				c-0.2-0.1-0.5,0-0.7,0.1c-0.8,0.4-1.6,0.9-2.4,1.4c0.6,0.6,1,0.7,1.7,0.2c0.5-0.4,1-0.4,1.7-0.2c3.7,1.1,7.3,2.2,11,3.4
				c0.1,0,0.3,0.1,0.4,0.2c-0.2,0.6-0.4,1.2-0.6,1.9c-2.5-0.7-4.9-1.5-7.3-2.2c0,0,0,0.1,0,0.1c2.8,1.3,5.6,2.6,8.5,4
				c-0.1,0.1-0.2,0.2-0.3,0.2c-3.7,1.8-7.4,3.6-11.2,5.4c-0.3,0.1-0.7,0.2-1,0.2c-1.4,0-2.8,0-4.2,0c-0.3,0-0.4,0-0.5-0.3
				c-2.3-5.5-4.6-11-6.9-16.5C22.1,25.2,22.1,25.1,22.1,25z"/>
		</g>
		<g>
			<linearGradient id="SVGID_3_" gradientUnits="userSpaceOnUse" x1="46.623" y1="31.377" x2="46.623" y2="44.0049">
				<stop  offset="0" style="stop-color:#A2CD3A"/>
				<stop  offset="0.5295" style="stop-color:#995624"/>
				<stop  offset="1" style="stop-color:#4E2817"/>
			</linearGradient>
			<path class="st4" d="M4.4,42.1c0-0.2,0-0.3,0-0.4c28.1,0,56.3,0,84.4,0c0,0.1,0,0.3,0,0.4C60.7,42.1,32.6,42.1,4.4,42.1z"/>
		</g>
		<g>
			<linearGradient id="SVGID_4_" gradientUnits="userSpaceOnUse" x1="46.623" y1="41.4707" x2="46.623" y2="54.0986">
				<stop  offset="0" style="stop-color:#A2CD3A"/>
				<stop  offset="0.5295" style="stop-color:#995624"/>
				<stop  offset="1" style="stop-color:#4E2817"/>
			</linearGradient>
			<path class="st5" d="M4.4,52.2c0-0.2,0-0.3,0-0.4c28.1,0,56.3,0,84.4,0c0,0.1,0,0.3,0,0.4C60.7,52.2,32.6,52.2,4.4,52.2z"/>
		</g>
		<g>
			<linearGradient id="SVGID_5_" gradientUnits="userSpaceOnUse" x1="46.5174" y1="-97.6163" x2="46.5174" y2="76.6614">
				<stop  offset="0" style="stop-color:#A2CD3A"/>
				<stop  offset="0.5295" style="stop-color:#995624"/>
				<stop  offset="1" style="stop-color:#4E2817"/>
			</linearGradient>
			<path class="st6" d="M4.3,49.9c0-1.6,0-4.4,0-6c28.1,0,56.3,0,84.4,0c0,1.5,0,4.3,0,6C60.6,49.9,32.5,49.9,4.3,49.9z"/>
		</g>
		<g>
			<linearGradient id="SVGID_6_" gradientUnits="userSpaceOnUse" x1="18.3489" y1="1.0318" x2="18.3489" y2="52.6303">
				<stop  offset="0" style="stop-color:#A2CD3A"/>
				<stop  offset="0.5295" style="stop-color:#995624"/>
				<stop  offset="1" style="stop-color:#4E2817"/>
			</linearGradient>
			<path class="st7" d="M28.3,42c-0.8,0-1.5,0-2.2,0c-0.1,0-0.3-0.2-0.3-0.4c-1.1-2.8-2.3-5.6-3.4-8.4c-0.5-1.1-0.9-2.2-1.4-3.3
				c-0.1-0.1-0.1-0.3-0.2-0.5c-0.1,0.2-0.2,0.3-0.3,0.4c-3,4-6,7.9-9,11.9c-0.2,0.3-0.4,0.4-0.7,0.3c-0.8,0-1.5,0-2.4,0
				c4.4-5.7,8.7-11.4,13-17.1C23.7,30.6,26,36.3,28.3,42z"/>
		</g>
		<g>
			<linearGradient id="SVGID_7_" gradientUnits="userSpaceOnUse" x1="74.0893" y1="1.0318" x2="74.0893" y2="52.6303">
				<stop  offset="0" style="stop-color:#A2CD3A"/>
				<stop  offset="0.5295" style="stop-color:#995624"/>
				<stop  offset="1" style="stop-color:#4E2817"/>
			</linearGradient>
			<path class="st8" d="M71.6,25.1c4.1,5.7,8.2,11.3,12.4,17c-1,0-1.8,0-2.6,0c-0.1,0-0.3-0.2-0.4-0.3c-2.8-3.9-5.6-7.8-8.5-11.7
				c-0.1-0.1-0.2-0.3-0.4-0.5c-0.1,0.2-0.2,0.3-0.2,0.5c-1.7,3.9-3.3,7.7-5,11.6c-0.1,0.3-0.3,0.4-0.6,0.4c-0.6,0-1.2,0-2,0
				C66.7,36.3,69.1,30.7,71.6,25.1z"/>
		</g>
		<g>
			<linearGradient id="SVGID_8_" gradientUnits="userSpaceOnUse" x1="36.7484" y1="1.0318" x2="36.7484" y2="52.6303">
				<stop  offset="0" style="stop-color:#A2CD3A"/>
				<stop  offset="0.5295" style="stop-color:#995624"/>
				<stop  offset="1" style="stop-color:#4E2817"/>
			</linearGradient>
			<path class="st9" d="M28.8,12.6c-0.3-0.6-0.7-1.1-1-1.7c1.1-0.6,2.1-1.2,3.2-1.8c0.7-0.4,1.3-0.8,2-1.2c0.2-0.1,0.4-0.1,0.6-0.1
				c3.9,1.2,7.8,2.3,11.6,3.5c0.1,0,0.2,0.1,0.4,0.1c-0.2,0.6-0.4,1.2-0.6,1.9c-0.8-0.2-1.6-0.5-2.4-0.7c-2.9-0.9-5.8-1.8-8.7-2.6
				c-0.2-0.1-0.5,0-0.7,0.1C31.8,10.9,30.3,11.8,28.8,12.6z"/>
		</g>
		<g>
			<linearGradient id="SVGID_9_" gradientUnits="userSpaceOnUse" x1="36.7556" y1="1.0318" x2="36.7556" y2="52.6303">
				<stop  offset="0" style="stop-color:#A2CD3A"/>
				<stop  offset="0.5295" style="stop-color:#995624"/>
				<stop  offset="1" style="stop-color:#4E2817"/>
			</linearGradient>
			<path class="st10" d="M45.1,20.4c-2-0.6-4-1.2-6-1.8C37.4,18,35.7,17.5,34,17c-0.2-0.1-0.5,0-0.7,0.1c-1.5,0.8-2.9,1.6-4.4,2.5
				c-0.3-0.6-0.6-1.1-1-1.7c0.1-0.1,0.2-0.1,0.3-0.2c1.6-0.9,3.2-1.9,4.9-2.8c0.2-0.1,0.4-0.2,0.6-0.1c3.9,1.2,7.9,2.4,11.8,3.6
				c0.1,0,0.1,0,0.2,0.1C45.5,19.1,45.3,19.7,45.1,20.4z"/>
		</g>
		<g>
			<linearGradient id="SVGID_10_" gradientUnits="userSpaceOnUse" x1="55.5356" y1="1.0318" x2="55.5356" y2="52.6303">
				<stop  offset="0" style="stop-color:#A2CD3A"/>
				<stop  offset="0.5295" style="stop-color:#995624"/>
				<stop  offset="1" style="stop-color:#4E2817"/>
			</linearGradient>
			<path class="st11" d="M64.4,18.5c-0.2,0.6-0.4,1.2-0.6,1.9c-1.3-0.4-2.5-0.8-3.8-1.1c-2.4-0.7-4.8-1.5-7.3-2.2
				c-0.3-0.1-0.6-0.1-0.9,0.1c-1.3,0.8-2.5,1.5-3.8,2.2c-0.1,0.1-0.3,0.2-0.5,0.3c-0.3-0.6-0.6-1.1-1-1.7c0.9-0.5,1.8-1,2.7-1.6
				c0.8-0.5,1.6-1,2.5-1.4c0.2-0.1,0.4-0.1,0.6-0.1c4,1.2,7.9,2.4,11.9,3.6C64.3,18.5,64.3,18.5,64.4,18.5z"/>
		</g>
		<g>
			<linearGradient id="SVGID_11_" gradientUnits="userSpaceOnUse" x1="55.545" y1="1.0318" x2="55.545" y2="52.6303">
				<stop  offset="0" style="stop-color:#A2CD3A"/>
				<stop  offset="0.5295" style="stop-color:#995624"/>
				<stop  offset="1" style="stop-color:#4E2817"/>
			</linearGradient>
			<path class="st12" d="M47.6,12.6c-0.3-0.6-0.6-1.1-1-1.7c0.1-0.1,0.2-0.2,0.3-0.2c1.6-0.9,3.2-1.9,4.8-2.8
				c0.2-0.1,0.4-0.2,0.6-0.1c3.9,1.2,7.9,2.4,11.8,3.6c0.1,0,0.1,0.1,0.2,0.1c-0.2,0.6-0.4,1.2-0.6,1.9c-0.8-0.3-1.6-0.5-2.4-0.7
				c-2.9-0.9-5.8-1.7-8.6-2.6c-0.3-0.1-0.6-0.1-0.8,0.1C50.5,11,49.1,11.8,47.6,12.6z"/>
		</g>
		<g>
			<linearGradient id="SVGID_12_" gradientUnits="userSpaceOnUse" x1="36.7405" y1="1.0318" x2="36.7405" y2="52.6303">
				<stop  offset="0" style="stop-color:#A2CD3A"/>
				<stop  offset="0.5295" style="stop-color:#995624"/>
				<stop  offset="1" style="stop-color:#4E2817"/>
			</linearGradient>
			<path class="st13" d="M27.9,24.9c1.8-1,3.5-2,5.2-3c0.1-0.1,0.3-0.1,0.5-0.1c4,1.2,7.9,2.4,11.9,3.6c0,0,0.1,0,0.2,0.1
				c-0.2,0.6-0.4,1.2-0.5,1.8c-0.7-0.2-1.4-0.4-2.1-0.6c-3-0.9-6-1.8-9-2.7c-0.2-0.1-0.5,0-0.7,0.1c-1.5,0.8-2.9,1.7-4.4,2.5
				C28.5,26,28.2,25.5,27.9,24.9z"/>
		</g>
		<g>
			<linearGradient id="SVGID_13_" gradientUnits="userSpaceOnUse" x1="55.5481" y1="1.0318" x2="55.5481" y2="52.6303">
				<stop  offset="0" style="stop-color:#A2CD3A"/>
				<stop  offset="0.5295" style="stop-color:#995624"/>
				<stop  offset="1" style="stop-color:#4E2817"/>
			</linearGradient>
			<path class="st14" d="M64.4,25.5c-0.2,0.6-0.4,1.2-0.6,1.9c-0.6-0.2-1.2-0.3-1.7-0.5c-3.1-0.9-6.2-1.9-9.3-2.9
				c-0.3-0.1-0.5-0.1-0.8,0.1c-1.3,0.8-2.6,1.5-3.9,2.3c-0.1,0.1-0.3,0.1-0.4,0.2c-0.3-0.6-0.6-1.1-1-1.7c0.1-0.1,0.2-0.2,0.3-0.2
				c1.6-0.9,3.2-1.9,4.8-2.8c0.2-0.1,0.5-0.1,0.7-0.1c3.9,1.2,7.8,2.4,11.7,3.5C64.2,25.4,64.3,25.4,64.4,25.5z"/>
		</g>
		<g>
			<linearGradient id="SVGID_14_" gradientUnits="userSpaceOnUse" x1="55.5428" y1="1.0318" x2="55.5428" y2="52.6303">
				<stop  offset="0" style="stop-color:#A2CD3A"/>
				<stop  offset="0.5295" style="stop-color:#995624"/>
				<stop  offset="1" style="stop-color:#4E2817"/>
			</linearGradient>
			<path class="st15" d="M47.6,23.1c-0.3-0.6-0.6-1.1-1-1.7c0.3-0.2,0.5-0.3,0.8-0.5c1.4-0.8,2.9-1.7,4.3-2.5
				c0.2-0.1,0.5-0.2,0.6-0.1c3.9,1.2,7.8,2.4,11.7,3.5c0.1,0,0.1,0.1,0.3,0.1c-0.2,0.6-0.4,1.2-0.6,1.9c-0.8-0.2-1.6-0.5-2.4-0.7
				c-2.9-0.9-5.8-1.8-8.7-2.6c-0.3-0.1-0.6-0.1-0.9,0.1c-1.3,0.8-2.6,1.5-3.9,2.2C47.9,22.9,47.8,23,47.6,23.1z"/>
		</g>
		<g>
			<linearGradient id="SVGID_15_" gradientUnits="userSpaceOnUse" x1="36.7485" y1="1.0318" x2="36.7485" y2="52.6303">
				<stop  offset="0" style="stop-color:#A2CD3A"/>
				<stop  offset="0.5295" style="stop-color:#995624"/>
				<stop  offset="1" style="stop-color:#4E2817"/>
			</linearGradient>
			<path class="st16" d="M45.6,22c-0.2,0.6-0.4,1.2-0.6,1.9c-1.4-0.4-2.8-0.9-4.2-1.3c-2.3-0.7-4.6-1.4-6.9-2.1
				c-0.2-0.1-0.5,0-0.7,0.1c-1.5,0.8-2.9,1.6-4.4,2.5c-0.3-0.6-0.6-1.1-1-1.7c1.3-0.7,2.5-1.5,3.8-2.2c0.6-0.3,1.1-0.8,1.7-0.9
				c0.6-0.1,1.2,0.3,1.9,0.5c3.3,1,6.6,2,9.9,3C45.2,21.9,45.4,21.9,45.6,22z"/>
		</g>
		<g>
			<linearGradient id="SVGID_16_" gradientUnits="userSpaceOnUse" x1="55.5375" y1="1.0318" x2="55.5375" y2="52.6303">
				<stop  offset="0" style="stop-color:#A2CD3A"/>
				<stop  offset="0.5295" style="stop-color:#995624"/>
				<stop  offset="1" style="stop-color:#4E2817"/>
			</linearGradient>
			<path class="st17" d="M47.6,16.1c-0.3-0.6-0.6-1.1-1-1.7c0.6-0.3,1.1-0.6,1.6-0.9c1.2-0.7,2.4-1.4,3.5-2c0.2-0.1,0.4-0.2,0.6-0.1
				c4,1.2,7.9,2.4,11.9,3.6c0,0,0.1,0,0.2,0.1c-0.2,0.6-0.4,1.2-0.6,1.8c-0.6-0.2-1.1-0.3-1.7-0.5c-3.1-0.9-6.2-1.9-9.3-2.8
				c-0.4-0.1-0.7-0.1-1,0.1c-1.3,0.7-2.5,1.5-3.8,2.2C48,15.9,47.8,16,47.6,16.1z"/>
		</g>
		<g>
			<linearGradient id="SVGID_17_" gradientUnits="userSpaceOnUse" x1="36.7583" y1="1.0318" x2="36.7583" y2="52.6303">
				<stop  offset="0" style="stop-color:#A2CD3A"/>
				<stop  offset="0.5295" style="stop-color:#995624"/>
				<stop  offset="1" style="stop-color:#4E2817"/>
			</linearGradient>
			<path class="st18" d="M45.6,15.1c-0.2,0.6-0.4,1.2-0.6,1.8c-0.8-0.2-1.5-0.5-2.3-0.7c-2.9-0.9-5.9-1.8-8.8-2.7
				c-0.2-0.1-0.5,0-0.7,0.1c-1.5,0.8-2.9,1.6-4.4,2.5c-0.3-0.6-0.6-1.1-1-1.6c0-0.1,0.1-0.1,0.1-0.1c1.7-1,3.4-2,5.1-2.9
				c0.1-0.1,0.3-0.1,0.5-0.1c4,1.2,7.9,2.4,11.9,3.6C45.5,15,45.5,15,45.6,15.1z"/>
		</g>
		<g>
			<linearGradient id="SVGID_18_" gradientUnits="userSpaceOnUse" x1="18.5836" y1="1.0318" x2="18.5836" y2="52.6303">
				<stop  offset="0" style="stop-color:#A2CD3A"/>
				<stop  offset="0.5295" style="stop-color:#995624"/>
				<stop  offset="1" style="stop-color:#4E2817"/>
			</linearGradient>
			<path class="st19" d="M19.5,37c-0.6,0-1.1,0-1.7,0c0-0.4,0-0.8,0-1.1c0-0.4,0.4-0.7,0.9-0.7c0.4,0,0.8,0.3,0.8,0.7
				C19.5,36.2,19.5,36.6,19.5,37z"/>
		</g>
		<g>
			<linearGradient id="SVGID_19_" gradientUnits="userSpaceOnUse" x1="74.1846" y1="1.0318" x2="74.1846" y2="52.6303">
				<stop  offset="0" style="stop-color:#A2CD3A"/>
				<stop  offset="0.5295" style="stop-color:#995624"/>
				<stop  offset="1" style="stop-color:#4E2817"/>
			</linearGradient>
			<path class="st20" d="M75.1,37c-0.6,0-1.2,0-1.8,0c0-0.4,0-0.8,0-1.1c0.1-0.5,0.5-0.8,1-0.7c0.5,0,0.8,0.4,0.8,0.9
				C75.1,36.3,75.1,36.6,75.1,37z"/>
		</g>
		<g>
			<linearGradient id="SVGID_20_" gradientUnits="userSpaceOnUse" x1="71.638" y1="1.0318" x2="71.638" y2="52.6303">
				<stop  offset="0" style="stop-color:#A2CD3A"/>
				<stop  offset="0.5295" style="stop-color:#995624"/>
				<stop  offset="1" style="stop-color:#4E2817"/>
			</linearGradient>
			<path class="st21" d="M72.5,37c-0.6,0-1.1,0-1.7,0c0-0.4,0-0.8,0-1.2c0.1-0.5,0.5-0.7,0.9-0.7c0.4,0,0.8,0.4,0.8,0.9
				C72.5,36.3,72.5,36.6,72.5,37z"/>
		</g>
		<g>
			<linearGradient id="SVGID_21_" gradientUnits="userSpaceOnUse" x1="21.1387" y1="1.0318" x2="21.1387" y2="52.6303">
				<stop  offset="0" style="stop-color:#A2CD3A"/>
				<stop  offset="0.5295" style="stop-color:#995624"/>
				<stop  offset="1" style="stop-color:#4E2817"/>
			</linearGradient>
			<path class="st22" d="M20.3,37c0-0.4,0-0.8,0-1.1c0-0.4,0.5-0.8,0.9-0.8c0.5,0,0.8,0.3,0.8,0.8c0,0.3,0,0.7,0,1.1
				C21.4,37,20.9,37,20.3,37z"/>
		</g>
		<g>
			<linearGradient id="SVGID_22_" gradientUnits="userSpaceOnUse" x1="71.617" y1="1.0318" x2="71.617" y2="52.6303">
				<stop  offset="0" style="stop-color:#A2CD3A"/>
				<stop  offset="0.5295" style="stop-color:#995624"/>
				<stop  offset="1" style="stop-color:#4E2817"/>
			</linearGradient>
			<path class="st23" d="M72.5,37.6c0,0.5,0,1,0,1.5c-0.6,0-1.1,0-1.7,0c0-0.4,0-0.9,0-1.4c0-0.1,0.2-0.2,0.2-0.2
				C71.5,37.6,72,37.6,72.5,37.6z"/>
		</g>
		<g>
			<linearGradient id="SVGID_23_" gradientUnits="userSpaceOnUse" x1="74.1985" y1="1.0318" x2="74.1985" y2="52.6303">
				<stop  offset="0" style="stop-color:#A2CD3A"/>
				<stop  offset="0.5295" style="stop-color:#995624"/>
				<stop  offset="1" style="stop-color:#4E2817"/>
			</linearGradient>
			<path class="st24" d="M75.1,39.2c-0.6,0-1.2,0-1.7,0c0-0.5,0-1,0-1.5c0.5,0,1,0,1.6,0c0.1,0,0.2,0.2,0.2,0.3
				C75.1,38.3,75.1,38.7,75.1,39.2z"/>
		</g>
		<g>
			<linearGradient id="SVGID_24_" gradientUnits="userSpaceOnUse" x1="18.6076" y1="1.0318" x2="18.6076" y2="52.6303">
				<stop  offset="0" style="stop-color:#A2CD3A"/>
				<stop  offset="0.5295" style="stop-color:#995624"/>
				<stop  offset="1" style="stop-color:#4E2817"/>
			</linearGradient>
			<path class="st25" d="M19.5,39.2c-0.6,0-1.1,0-1.7,0c0-0.5,0-1,0-1.5c0.5,0,1,0,1.5,0c0.1,0,0.2,0.1,0.2,0.2
				C19.5,38.3,19.5,38.7,19.5,39.2z"/>
		</g>
		<g>
			<linearGradient id="SVGID_25_" gradientUnits="userSpaceOnUse" x1="21.1251" y1="1.0318" x2="21.1251" y2="52.6303">
				<stop  offset="0" style="stop-color:#A2CD3A"/>
				<stop  offset="0.5295" style="stop-color:#995624"/>
				<stop  offset="1" style="stop-color:#4E2817"/>
			</linearGradient>
			<path class="st26" d="M20.3,39.1c0-0.5,0-1,0-1.5c0.6,0,1.1,0,1.7,0c0,0.5,0,1,0,1.5C21.4,39.1,20.9,39.1,20.3,39.1z"/>
		</g>
	</g>
</g>
</svg>
