<svg width="108" height="48" viewBox="0 0 108 48" fill="none" xmlns="http://www.w3.org/2000/svg">
<path d="M8.15043 0V39.8555L0 48V8.14647L8.15043 0Z" fill="#2C1443"/>
<path d="M21.3798 0C25.4258 0 28.7055 3.27803 28.7055 7.3221V21.3091H28.6899L20.557 29.4381H4.88831L11.9475 22.3824C12.6361 21.6941 13.5678 21.3091 14.5404 21.3091H20.555V8.12897H7.49684L14.556 1.07323C15.2446 0.384964 16.1764 0 17.149 0H21.3798Z" fill="#2C1443"/>
<path d="M92.3391 0V29.4362H84.1887V8.12897L92.3216 0H92.3391Z" fill="#2C1443"/>
<path d="M108 0V8.12897H91.6875L98.7466 1.07323C99.4352 0.384964 100.367 0 101.34 0H108Z" fill="#2C1443"/>
<path d="M41.0653 0V29.4362H32.9149V8.12897L41.0478 0H41.0653Z" fill="#2C1443"/>
<path d="M79.7711 7.3221V29.4342H71.6207V8.12897H59.7646L66.8238 1.07323C67.5124 0.386909 68.4461 0 69.4187 0H72.4454C76.4915 0 79.7711 3.27803 79.7711 7.3221Z" fill="#2C1443"/>
<path d="M60.4182 7.3221V29.4342H52.2678V8.12897H40.4117L47.4709 1.07323C48.1595 0.386909 49.0913 0 50.0639 0H53.0906C57.1366 0 60.4182 3.27803 60.4182 7.3221Z" fill="#2C1443"/>
<path d="M34.6578 41.2865V43.9676C34.3271 44.162 33.8544 44.3312 33.2534 44.475C32.6523 44.6189 32.094 44.6948 31.5785 44.6948C28.8358 44.6948 27.3633 43.5437 27.3633 41.6481C27.3633 40.7012 27.727 39.9566 28.4468 39.4141C29.1665 38.8717 30.2149 38.6014 31.5785 38.6014C32.5356 38.6014 33.4226 38.7531 34.261 39.0661V40.1063C33.5743 39.7505 32.7204 39.5736 31.6875 39.5736C30.7907 39.5736 30.0788 39.7524 29.5458 40.1063C29.0206 40.4524 28.758 40.9695 28.758 41.6461C28.758 42.9994 29.8745 43.7362 31.67 43.7362C32.2633 43.7362 32.7962 43.6098 33.2787 43.3649V42.1303H30.9094V41.2845H34.6597L34.6578 41.2865Z" fill="#2C1443"/>
<path d="M45.9828 43.7907L46.0159 44.0862C46.049 44.2631 46.0995 44.5081 46.2182 44.6111H44.771C44.7029 44.51 44.6601 44.3584 44.6192 44.2223C44.5939 44.1465 44.5686 43.9598 44.5609 43.884C44.5531 43.7907 44.5103 43.5457 44.5025 43.4446C44.4597 43.0635 44.3255 42.801 44.096 42.6669C43.8684 42.5308 43.4774 42.4627 42.9113 42.4627H40.5168V44.6111H39.1279V38.6889H43.0475C44.9946 38.6889 45.9673 39.2644 45.9673 40.4232C45.9673 41.1426 45.5685 41.65 44.7729 41.9378V41.9806C45.1717 42.0564 45.4498 42.2003 45.6113 42.42C45.7727 42.6319 45.8817 42.978 45.942 43.4524L45.9848 43.7907H45.9828ZM43.0455 41.5742C43.9929 41.5742 44.5862 41.2437 44.5862 40.6021C44.5862 39.9605 44.0707 39.663 43.0455 39.663H40.5148V41.5742H43.0455Z" fill="#2C1443"/>
<path d="M53.9582 38.6053C55.1603 38.6053 56.0823 38.8756 56.7262 39.4258C57.3779 39.9682 57.6988 40.711 57.6988 41.65C57.6988 42.5891 57.3779 43.3338 56.7262 43.884C56.0823 44.4264 55.1603 44.6967 53.9582 44.6967C52.756 44.6967 51.834 44.4264 51.1824 43.884C50.5385 43.3338 50.2175 42.5891 50.2175 41.65C50.2175 40.711 50.5385 39.9663 51.1824 39.4258C51.834 38.8756 52.756 38.6053 53.9582 38.6053ZM56.3197 41.65C56.3197 40.3046 55.4385 39.5774 53.9582 39.5774C52.4779 39.5774 51.5792 40.3046 51.5792 41.65C51.5792 42.9955 52.4681 43.7226 53.9582 43.7226C55.4482 43.7226 56.3197 42.9955 56.3197 41.65Z" fill="#2C1443"/>
<path d="M62.1008 41.8522V38.6889H63.48V41.7511C63.48 43.0616 64.2425 43.7304 65.5536 43.7304C66.8646 43.7304 67.6097 43.0616 67.6097 41.7511V38.6889H68.9985V41.8367C68.9985 43.6565 67.7458 44.6967 65.5458 44.6967C63.3458 44.6967 62.1086 43.6487 62.1008 41.8542" fill="#2C1443"/>
<path d="M75.1785 42.8263V44.6111H73.7896V38.6889H77.7247C79.6622 38.6889 80.6367 39.383 80.6367 40.7615C80.6367 42.14 79.6622 42.8263 77.7247 42.8263H75.1765H75.1785ZM75.1785 39.663V41.8542H77.717C78.674 41.8542 79.2576 41.4984 79.2576 40.7635C79.2576 40.0285 78.674 39.6649 77.717 39.6649H75.1785V39.663Z" fill="#2C1443"/>
</svg>
